<svg xmlns="http://www.w3.org/2000/svg" id="_Farmas_Cefas_-_Menu" width="23.067" height="20" data-name="_Farmas Cefas - Menu" viewBox="0 0 23.067 20">
    <defs>
        <style>
            .cls-1{fill:#ff4a03}
        </style>
    </defs>
    <path id="Caminho_3049" d="M1.965 8.695h10.7A1.568 1.568 0 0 0 14.23 7.13v-.065A1.568 1.568 0 0 0 12.668 5.5H1.965A1.568 1.568 0 0 0 .4 7.065v.064a1.568 1.568 0 0 0 1.565 1.566z" class="cls-1" data-name="Caminho 3049" transform="translate(8.833 -5.5)"/>
    <path id="Caminho_3050" d="M1.965 35.395H21.9a1.568 1.568 0 0 0 1.565-1.565v-.064A1.568 1.568 0 0 0 21.9 32.2H1.965A1.568 1.568 0 0 0 .4 33.765v.064a1.568 1.568 0 0 0 1.565 1.566z" class="cls-1" data-name="Caminho 3050" transform="translate(-.4 -23.67)"/>
    <path id="Caminho_3051" d="M1.965 61.295h16.262a1.568 1.568 0 0 0 1.565-1.565v-.064a1.568 1.568 0 0 0-1.565-1.566H1.965A1.568 1.568 0 0 0 .4 59.665v.064a1.568 1.568 0 0 0 1.565 1.566z" class="cls-1" data-name="Caminho 3051" transform="translate(3.274 -41.295)"/>
</svg>
