<svg xmlns="http://www.w3.org/2000/svg" width="152.791" height="184.486" viewBox="0 0 152.791 184.486">
    <g id="root" data-name="_Farmas Cefas - Sad Man" transform="translate(-43.983)">
        <g id="Grupo_783" data-name="Grupo 783" transform="translate(43.983)">
            <path id="Caminho_3041" d="M173.362 118.425l-13.974-3.992a14.407 14.407 0 0 0 4.8-21.665 44.8 44.8 0 0 0 1.286-7.86 19.24 19.24 0 0 0 15.723-18.89v-10.4C181.194 25.469 155.726 0 125.579 0c-12.065 0-22.151 1.951-30.832 5.964A3.6 3.6 0 0 0 97.77 12.5c7.713-3.565 16.809-5.3 27.809-5.3 26.24 0 48.409 22.168 48.409 48.409v10.4a12.022 12.022 0 0 1-8.4 11.448V61.258a3.6 3.6 0 0 0-3.223-3.583c-14.7-1.561-16.546-16.872-16.616-17.51a3.6 3.6 0 0 0-6.163-2.149 78.3 78.3 0 0 1-22.226 14.731c-12.635 5.555-25.185 7.01-37.481 4.37a3.581 3.581 0 0 0-.672-.148 62.645 62.645 0 0 1-11.753-3.956A84.456 84.456 0 0 1 77.6 30.238a3.6 3.6 0 1 0-6.008-3.98c-4.971 7.5-8.976 16.849-11.9 27.775a3.6 3.6 0 0 0 1.869 4.156 70.879 70.879 0 0 0 13.612 5.169v18.264a45.05 45.05 0 0 0 12.376 31.047l-20.148 5.757c-14 4-23.411 15.841-23.411 29.462v33a3.6 3.6 0 0 0 7.206 0v-33c0-10.37 7.308-19.425 18.184-22.533l20.2-5.771 7.665 28.465a3.6 3.6 0 0 0 6.255 1.351l6.071-7.375v38.854a3.6 3.6 0 0 0 7.206 0v-47.603l3.6-4.376 3.6 4.376v47.606a3.6 3.6 0 1 0 7.206 0v-38.854l6.073 7.375a3.6 3.6 0 0 0 6.261-1.353l7.665-28.465 20.2 5.771c10.877 3.108 18.184 12.163 18.184 22.533v33a3.6 3.6 0 0 0 7.206 0v-33c.001-13.623-9.407-25.463-23.41-29.464zM157.9 106.708a7.206 7.206 0 1 1-10.191-10.191l5.1-5.1 4.8 4.8.019.019.275.275a7.206 7.206 0 0 1 0 10.191zm-75.528-41.87a64.89 64.89 0 0 0 9.493.7 70.375 70.375 0 0 0 28.646-6.3 88.047 88.047 0 0 0 19.6-12.047 31.563 31.563 0 0 0 2.1 4.732 24.1 24.1 0 0 0 16.172 12.392v17.307a37.826 37.826 0 0 1-.32 4.864l-2.709-2.709a3.6 3.6 0 0 0-5.1 0l-7.644 7.644a14.412 14.412 0 0 0 0 20.383c.114.114.231.222.348.331a37.867 37.867 0 0 1-49.121-3.335 3.588 3.588 0 0 0-.611-.61 37.879 37.879 0 0 1-10.854-26.568V64.838zm20 74.587l-5.102-18.957a44.9 44.9 0 0 0 15.942 5.8l-2.82 3.425v.005zm36 0l-8.013-9.732v-.005l-2.822-3.427a44.8 44.8 0 0 0 15.951-5.819z" class="cls-1" data-name="Caminho 3041" transform="translate(-43.983)"/>
            <path id="Caminho_3042" d="M177.8 210.816a18.015 18.015 0 0 0 18.016 0 3.6 3.6 0 0 0-3.6-6.241 10.81 10.81 0 0 1-10.81 0 3.6 3.6 0 1 0-3.6 6.241z" class="cls-1" data-name="Caminho 3042" transform="translate(-128.431 -130.553)"/>
            <path id="Caminho_3043" d="M277.8 210.816a18.015 18.015 0 0 0 18.016 0 3.6 3.6 0 0 0-3.6-6.241 10.81 10.81 0 0 1-10.809 0 3.6 3.6 0 0 0-3.6 6.241z" class="cls-1" data-name="Caminho 3043" transform="translate(-192.399 -130.553)"/>
            <path id="Caminho_3044" d="M226.483 273.981a3.6 3.6 0 0 0 4.917 1.319 10.808 10.808 0 0 1 10.81 0 3.6 3.6 0 1 0 3.6-6.241 18.015 18.015 0 0 0-18.016 0 3.6 3.6 0 0 0-1.311 4.922z" class="cls-1" data-name="Caminho 3044" transform="translate(-160.415 -170.567)"/>
            <path id="Caminho_3045" d="M148.867 44.927a3.6 3.6 0 1 0-2.308-6.372 3.6 3.6 0 0 0 2.31 6.37z" class="cls-1" data-name="Caminho 3045" transform="translate(-108.768 -24.129)"/>
            <path id="Caminho_3046" d="M386.039 452h-14.411a3.6 3.6 0 1 0 0 7.206h14.411a3.6 3.6 0 1 0 0-7.206z" class="cls-1" data-name="Caminho 3046" transform="translate(-251.266 -289.134)"/>
            <path id="Caminho_3047" d="M331.628 452a3.6 3.6 0 1 0 3.606 3.6 3.6 3.6 0 0 0-3.609-3.6z" class="cls-1" data-name="Caminho 3047" transform="translate(-225.677 -289.134)"/>
        </g>
    </g>
</svg>
